<svg width="41" height="46" viewBox="0 0 41 46" fill="none" xmlns="http://www.w3.org/2000/svg">
<path d="M39.5478 34.4263C39.8616 33.8827 40.0566 33.2701 40.0566 32.7201V13.6261C40.0566 13.076 39.8619 12.4636 39.5479 11.9199L20.0566 23.1731L39.5478 34.4263Z" fill="#00599C"/>
<path d="M21.7886 45.2657L38.3245 35.7188C38.8009 35.4438 39.2338 34.9689 39.5477 34.4251L20.0565 23.1719L0.56543 34.4252C0.879286 34.9689 1.31236 35.4439 1.78857 35.7188L18.3245 45.2657C19.2771 45.8158 20.836 45.8158 21.7886 45.2657Z" fill="#004482"/>
<path d="M39.5479 11.9192C39.2339 11.3754 38.8008 10.9005 38.3246 10.6255L21.7887 1.07856C20.8361 0.528499 19.2772 0.528499 18.3246 1.07856L1.78867 10.6255C0.835987 11.1754 0.0566406 12.5255 0.0566406 13.6255V32.7195C0.0566406 33.2696 0.251543 33.8821 0.56553 34.4258L20.0566 23.1726L39.5479 11.9192Z" fill="#659AD2"/>
<path d="M20.0565 36.5065C12.7045 36.5065 6.72314 30.5252 6.72314 23.1732C6.72314 15.8212 12.7045 9.83984 20.0565 9.83984C24.8005 9.83984 29.225 12.3928 31.603 16.5023L25.8327 19.8414C24.6425 17.7844 22.429 16.5065 20.0565 16.5065C16.3804 16.5065 13.3898 19.4971 13.3898 23.1732C13.3898 26.8491 16.3804 29.8398 20.0565 29.8398C22.4293 29.8398 24.6428 28.5619 25.8331 26.5046L31.6034 29.8435C29.2254 33.9534 24.8008 36.5065 20.0565 36.5065Z" fill="white"/>
</svg>
