<svg width="40" height="24" viewBox="0 0 40 24" fill="none" xmlns="http://www.w3.org/2000/svg">
<path d="M29.2049 17.7106C28.8752 17.7106 28.553 17.6129 28.2789 17.4298C28.0048 17.2466 27.7912 16.9863 27.6651 16.6818C27.5389 16.3772 27.5059 16.0421 27.5702 15.7188C27.6345 15.3955 27.7933 15.0985 28.0264 14.8655C28.2594 14.6324 28.5564 14.4736 28.8797 14.4093C29.203 14.345 29.5381 14.378 29.8427 14.5042C30.1472 14.6303 30.4075 14.8439 30.5906 15.118C30.7738 15.3921 30.8715 15.7143 30.8715 16.044C30.8715 16.486 30.6959 16.9099 30.3834 17.2225C30.0708 17.535 29.6469 17.7106 29.2049 17.7106ZM10.7951 17.7106C10.4655 17.7106 10.1433 17.6129 9.86919 17.4298C9.59511 17.2466 9.38149 16.9863 9.25534 16.6818C9.12919 16.3772 9.09619 16.0421 9.1605 15.7188C9.22481 15.3955 9.38354 15.0985 9.61663 14.8655C9.84972 14.6324 10.1467 14.4736 10.47 14.4093C10.7933 14.345 11.1284 14.378 11.4329 14.5042C11.7375 14.6303 11.9978 14.8439 12.1809 15.118C12.3641 15.3921 12.4618 15.7143 12.4618 16.044C12.4618 16.486 12.2862 16.9099 11.9737 17.2225C11.6611 17.535 11.2372 17.7106 10.7951 17.7106ZM29.8021 7.6773L33.1313 1.91341C33.1842 1.83448 33.2204 1.74551 33.2376 1.65201C33.2548 1.55851 33.2526 1.46249 33.2312 1.36987C33.2097 1.27726 33.1695 1.19003 33.113 1.1136C33.0565 1.03716 32.9848 0.973144 32.9026 0.925509C32.8203 0.877874 32.7291 0.847636 32.6347 0.836669C32.5403 0.825701 32.4446 0.834237 32.3536 0.861748C32.2626 0.889259 32.1783 0.93516 32.1057 0.996606C32.0332 1.05805 31.974 1.13374 31.9319 1.21897L28.5611 7.05717C25.8686 5.84955 22.951 5.22523 20 5.22523C17.049 5.22523 14.1314 5.84955 11.4389 7.05717L8.06806 1.21897C8.02596 1.13374 7.96682 1.05805 7.89428 0.996606C7.82175 0.93516 7.73737 0.889259 7.64638 0.861748C7.55539 0.834237 7.45971 0.825701 7.36528 0.836669C7.27086 0.847636 7.17969 0.877874 7.09742 0.925509C7.01516 0.973144 6.94355 1.03716 6.88703 1.1136C6.83051 1.19003 6.79029 1.27726 6.76885 1.36987C6.74741 1.46249 6.74522 1.55851 6.7624 1.65201C6.77959 1.74551 6.81578 1.83448 6.86875 1.91341L10.1979 7.6773C4.48125 10.7863 0.572222 16.5731 0 23.4099H40C39.4278 16.5731 35.5181 10.7863 29.8021 7.6773Z" fill="#3DDB86"/>
</svg>
