<svg width="45" height="35" viewBox="0 0 45 35" fill="none" xmlns="http://www.w3.org/2000/svg">
<path d="M38.1193 2.85629C35.1627 1.50271 32.0415 0.54244 28.8354 0C28.3967 0.784289 27.9998 1.59122 27.6462 2.41741C24.2311 1.90279 20.7581 1.90279 17.343 2.41741C16.9893 1.5913 16.5923 0.784384 16.1538 0C12.9456 0.547021 9.82238 1.50958 6.86286 2.86337C0.987458 11.5561 -0.605271 20.033 0.191094 28.3895C3.63188 30.9317 7.48309 32.8651 11.5773 34.1056C12.4992 32.8657 13.315 31.5503 14.016 30.1734C12.6846 29.6761 11.3995 29.0626 10.1757 28.34C10.4978 28.1064 10.8128 27.8657 11.1172 27.6321C14.6782 29.3067 18.5648 30.175 22.4999 30.175C26.435 30.175 30.3216 29.3067 33.8826 27.6321C34.1906 27.8834 34.5056 28.1241 34.8241 28.34C33.5979 29.0638 32.3105 29.6785 30.9768 30.1769C31.6769 31.5532 32.4927 32.8675 33.4154 34.1056C37.5132 32.8701 41.3673 30.9376 44.8087 28.3931C45.7431 18.7022 43.2125 10.3032 38.1193 2.85629ZM15.0247 23.2503C12.8055 23.2503 10.9721 21.2364 10.9721 18.7588C10.9721 16.2812 12.7418 14.2496 15.0176 14.2496C17.2935 14.2496 19.1127 16.2812 19.0738 18.7588C19.0349 21.2364 17.2864 23.2503 15.0247 23.2503ZM29.9751 23.2503C27.7524 23.2503 25.9261 21.2364 25.9261 18.7588C25.9261 16.2812 27.6958 14.2496 29.9751 14.2496C32.2545 14.2496 34.0596 16.2812 34.0207 18.7588C33.9817 21.2364 32.2368 23.2503 29.9751 23.2503Z" fill="white" fill-opacity="0.25"/>
</svg>
