<svg width="41" height="56" viewBox="0 0 41 56" fill="none" xmlns="http://www.w3.org/2000/svg">
<path d="M0.188232 45.1623L0.521565 44.6976L16.2471 14.8662L16.2804 14.5505L9.34902 1.53089C9.22212 1.2928 9.02358 1.10065 8.78147 0.981602C8.53937 0.862558 8.26596 0.822653 7.99993 0.867533C7.7339 0.912414 7.48871 1.03981 7.29906 1.23169C7.10941 1.42357 6.9849 1.67023 6.94313 1.93677L0.188232 45.1623Z" fill="#FFC24A"/>
<path d="M0.384277 44.8095L0.635257 44.3193L16.198 14.7977L9.28428 1.72714C9.17026 1.49983 8.98567 1.31558 8.75814 1.202C8.53062 1.08842 8.27242 1.05161 8.02222 1.0971C7.77202 1.14259 7.5433 1.26793 7.37032 1.45433C7.19734 1.64073 7.08941 1.87816 7.06271 2.13106L0.384277 44.8095Z" fill="#FFA712"/>
<path d="M21.3334 24.397L26.4942 19.1028L21.3315 9.25775C21.2178 9.04587 21.0489 8.86877 20.8426 8.74531C20.6362 8.62184 20.4003 8.55664 20.1599 8.55664C19.9195 8.55664 19.6835 8.62184 19.4772 8.74531C19.2709 8.86877 19.1019 9.04587 18.9883 9.25775L16.2295 14.5166V14.9656L21.3334 24.397Z" fill="#F4BD62"/>
<path d="M21.2411 24.1812L26.2587 19.0439L21.2411 9.47531C21.1589 9.26819 21.0186 9.08924 20.8371 8.96005C20.6556 8.83086 20.4406 8.75694 20.218 8.7472C19.9954 8.73746 19.7747 8.79231 19.5826 8.90515C19.3905 9.01799 19.2351 9.184 19.1352 9.38315L16.3626 14.7341L16.2803 15.0067L21.2411 24.1812Z" fill="#FFA50E"/>
<path d="M0.192139 45.1647L0.343119 45.0118L0.890178 44.7902L21.0078 24.7471L21.2627 24.053L16.2451 14.4883L0.192139 45.1647Z" fill="#F6820C"/>
<path d="M21.9765 55.2713L40.1882 45.1164L34.9843 13.0948C34.947 12.8691 34.8482 12.658 34.6988 12.4847C34.5494 12.3115 34.3551 12.1827 34.1373 12.1126C33.9196 12.0425 33.6867 12.0338 33.4642 12.0874C33.2418 12.141 33.0384 12.2548 32.8765 12.4164L0.188232 45.1615L18.2922 55.2693C18.855 55.5834 19.4888 55.7483 20.1333 55.7483C20.7779 55.7483 21.4117 55.5834 21.9745 55.2693" fill="#FDE068"/>
<path d="M40.0215 45.0335L34.8607 13.2531C34.8516 13.0372 34.7787 12.8289 34.6511 12.6544C34.5235 12.48 34.3471 12.3474 34.1441 12.2733C33.9411 12.1991 33.7207 12.1869 33.5107 12.2381C33.3008 12.2894 33.1107 12.4017 32.9647 12.561L0.384277 45.1022L18.2882 55.1022C18.8466 55.4136 19.4753 55.5772 20.1147 55.5772C20.754 55.5772 21.3828 55.4136 21.9411 55.1022L40.0215 45.0335Z" fill="#FCCA3F"/>
<path d="M21.9765 54.9653C21.4136 55.2794 20.7798 55.4443 20.1353 55.4443C19.4908 55.4443 18.8569 55.2794 18.2941 54.9653L0.337252 45.0085L0.188232 45.1614L18.2922 55.2692C18.855 55.5833 19.4888 55.7482 20.1333 55.7482C20.7779 55.7482 21.4117 55.5833 21.9745 55.2692L40.1882 45.1163L40.1431 44.8418L21.9765 54.9653Z" fill="#EEAB37"/>
</svg>
