<svg width="41" height="40" viewBox="0 0 41 40" fill="none" xmlns="http://www.w3.org/2000/svg">
<path fill-rule="evenodd" clip-rule="evenodd" d="M20.5 0.194336C9.31773 0.194336 0.25 9.25997 0.25 20.4443C0.25 29.391 6.05223 36.9815 14.0982 39.6592C15.1102 39.8466 15.4817 39.2198 15.4817 38.685C15.4817 38.2025 15.4629 36.607 15.4543 34.9149C9.82076 36.1399 8.63201 32.5256 8.63201 32.5256C7.71083 30.1854 6.38359 29.5627 6.38359 29.5627C4.54628 28.3059 6.52208 28.3317 6.52208 28.3317C8.55549 28.4745 9.62618 30.4187 9.62618 30.4187C11.4323 33.5142 14.3634 32.6193 15.519 32.1018C15.7011 30.7934 16.2255 29.8997 16.8047 29.394C12.3068 28.8823 7.57871 27.1456 7.57871 19.3863C7.57871 17.1758 8.36975 15.3694 9.66516 13.9513C9.4549 13.4409 8.76176 11.3813 9.86163 8.59212C9.86163 8.59212 11.5622 8.04813 15.4315 10.6681C17.0468 10.2195 18.7791 9.99437 20.5 9.98638C22.2209 9.99399 23.9546 10.2194 25.5729 10.6681C29.4379 8.04813 31.1361 8.59212 31.1361 8.59212C32.2383 11.3813 31.5452 13.4409 31.3349 13.9513C32.6334 15.3694 33.4186 17.1758 33.4186 19.3863C33.4186 27.1644 28.6814 28.8766 24.1722 29.3779C24.8986 30.0063 25.5457 31.2387 25.5457 33.1279C25.5457 35.8374 25.5226 38.0181 25.5226 38.685C25.5226 39.2242 25.8868 39.8557 26.9133 39.6568C34.9552 36.9762 40.75 29.3883 40.75 20.4444C40.75 9.25988 31.6836 0.194336 20.5 0.194336Z" fill="white" fill-opacity="0.25"/>
<path d="M7.91983 29.268C7.87515 29.3688 7.71689 29.3991 7.57278 29.3297C7.42545 29.2636 7.34342 29.1265 7.39094 29.0255C7.43467 28.9222 7.59284 28.8934 7.73979 28.9625C7.88665 29.0285 7.9704 29.167 7.91983 29.268ZM8.74015 30.1829C8.64357 30.2724 8.45441 30.2308 8.32666 30.0894C8.19387 29.9482 8.16935 29.759 8.26735 29.6686C8.36696 29.579 8.55004 29.6209 8.68245 29.7621C8.81524 29.905 8.8411 30.0924 8.74015 30.1829ZM9.53851 31.349C9.41447 31.4355 9.21124 31.3547 9.08577 31.1747C8.96172 30.9943 8.96172 30.7783 9.08862 30.6918C9.21409 30.6053 9.41428 30.6833 9.54136 30.8618C9.66513 31.0448 9.66512 31.2608 9.53851 31.349ZM10.6322 32.4759C10.5213 32.5982 10.2849 32.5654 10.1118 32.3984C9.93479 32.2351 9.88556 32.0034 9.99649 31.8809C10.1091 31.7583 10.3469 31.7927 10.5212 31.9584C10.697 32.1214 10.7503 32.3548 10.6322 32.4759ZM12.1413 33.1301C12.0919 33.2888 11.8647 33.3605 11.6352 33.2931C11.4061 33.2237 11.2563 33.0383 11.3025 32.878C11.3503 32.718 11.579 32.6432 11.8099 32.7153C12.0386 32.7844 12.1889 32.9688 12.1413 33.1301ZM13.7986 33.2513C13.8043 33.4184 13.6098 33.5569 13.369 33.5598C13.1269 33.5655 12.9308 33.4301 12.9281 33.2657C12.9281 33.0971 13.1186 32.9603 13.3603 32.9558C13.6011 32.9511 13.7986 33.0857 13.7986 33.2513ZM15.3406 32.989C15.3694 33.1515 15.2021 33.3189 14.9631 33.3635C14.728 33.4068 14.5103 33.3058 14.4805 33.1446C14.4513 32.9776 14.6214 32.8103 14.8564 32.767C15.0959 32.7255 15.3101 32.8234 15.3406 32.989Z" fill="white" fill-opacity="0.25"/>
</svg>
