<svg width="41" height="41" viewBox="0 0 41 41" fill="none" xmlns="http://www.w3.org/2000/svg">
<path d="M20.5001 0.25C15.0004 0.25 14.3108 0.273331 12.1509 0.37184C9.99555 0.470168 8.52353 0.812537 7.23544 1.31304C5.90382 1.83054 4.77453 2.523 3.64879 3.64873C2.523 4.77447 1.83054 5.90388 1.3131 7.2355C0.812477 8.52353 0.470228 9.99555 0.371779 12.1509C0.273271 14.3108 0.25 15.0004 0.25 20.5001C0.25 25.9995 0.273271 26.6892 0.371779 28.8491C0.470228 31.0044 0.812477 32.4765 1.3131 33.7645C1.8306 35.0961 2.52306 36.2254 3.64879 37.3513C4.77459 38.477 5.90382 39.1695 7.23544 39.687C8.52353 40.1875 9.99555 40.5298 12.1509 40.6282C14.3108 40.7267 15.0004 40.75 20.5001 40.75C25.9995 40.75 26.6892 40.7267 28.8491 40.6282C31.0044 40.5298 32.4765 40.1875 33.7645 39.687C35.0961 39.1695 36.2254 38.477 37.3513 37.3513C38.477 36.2254 39.1695 35.0961 39.687 33.7645C40.1875 32.4765 40.5298 31.0044 40.6282 28.8491C40.7267 26.6892 40.75 25.9995 40.75 20.5001C40.75 15.0004 40.7267 14.3108 40.6282 12.1509C40.5298 9.99555 40.1875 8.52353 39.687 7.2355C39.1695 5.90388 38.477 4.77447 37.3513 3.64873C36.2254 2.523 35.0961 1.83054 33.7645 1.31304C32.4765 0.812537 31.0044 0.470168 28.8491 0.37184C26.6892 0.273331 25.9995 0.25 20.5001 0.25ZM20.5001 3.89862C25.9069 3.89862 26.5474 3.9193 28.6827 4.01672C30.6571 4.10673 31.7293 4.43662 32.4428 4.71394C33.3881 5.08133 34.0627 5.5201 34.7712 6.22871C35.4799 6.93732 35.9187 7.61193 36.2861 8.55711C36.5634 9.27066 36.8933 10.3429 36.9833 12.3173C37.0807 14.4526 37.1014 15.0931 37.1014 20.5C37.1014 25.9069 37.0807 26.5474 36.9833 28.6827C36.8933 30.6571 36.5634 31.7293 36.2861 32.4428C35.9187 33.3881 35.4799 34.0627 34.7712 34.7712C34.0627 35.4799 33.3881 35.9187 32.4429 36.2861C31.7293 36.5634 30.6571 36.8933 28.6827 36.9833C26.5478 37.0807 25.9074 37.1014 20.5 37.1014C15.0926 37.1014 14.4523 37.0807 12.3173 36.9832C10.3429 36.8933 9.27067 36.5634 8.55717 36.2861C7.61187 35.9187 6.93732 35.4799 6.22877 34.7712C5.52016 34.0627 5.08133 33.3881 4.71394 32.4429C4.43662 31.7293 4.10679 30.6571 4.01672 28.6827C3.9193 26.5474 3.89862 25.9069 3.89862 20.5C3.89862 15.0931 3.9193 14.4526 4.01672 12.3173C4.10679 10.3429 4.43662 9.27067 4.71394 8.55717C5.08133 7.61187 5.52016 6.93732 6.22871 6.22877C6.93732 5.5201 7.61193 5.08133 8.55711 4.71394C9.27066 4.43662 10.3429 4.10673 12.3173 4.01672C14.4526 3.9193 15.0931 3.89862 20.5001 3.89862Z" fill="white" fill-opacity="0.25"/>
<path d="M20.5 27.2493C16.772 27.2493 13.7499 24.2273 13.7499 20.4994C13.7499 16.7713 16.772 13.7493 20.5 13.7493C24.2279 13.7493 27.25 16.7713 27.25 20.4994C27.25 24.2273 24.2279 27.2493 20.5 27.2493ZM20.5 10.1007C14.7569 10.1007 10.1013 14.7563 10.1013 20.4994C10.1013 26.2424 14.7569 30.8979 20.5 30.8979C26.243 30.8979 30.8986 26.2424 30.8986 20.4994C30.8986 14.7563 26.243 10.1007 20.5 10.1007ZM33.7395 9.68981C33.7395 11.0319 32.6515 12.1198 31.3095 12.1198C29.9675 12.1198 28.8795 11.0319 28.8795 9.68981C28.8795 8.34776 29.9675 7.25977 31.3095 7.25977C32.6515 7.25977 33.7395 8.34776 33.7395 9.68981Z" fill="white" fill-opacity="0.25"/>
</svg>
