<svg width="41" height="41" viewBox="0 0 41 41" fill="none" xmlns="http://www.w3.org/2000/svg">
<path d="M0.0566406 0.666016H40.0566V40.666H0.0566406V0.666016Z" fill="#F7DF1E"/>
<path d="M10.5743 34.0923L13.6354 32.2398C14.2259 33.2869 14.7631 34.1728 16.0517 34.1728C17.2869 34.1728 18.0656 33.6896 18.0656 31.8103V19.0293H21.8246V31.8634C21.8246 35.7567 19.5424 37.5289 16.2128 37.5289C13.2058 37.5289 11.4603 35.9715 10.5742 34.092" fill="black"/>
<path d="M23.8662 33.6896L26.9269 31.9175C27.7326 33.2333 28.7798 34.1999 30.6324 34.1999C32.1899 34.1999 33.1831 33.4211 33.1831 32.3471C33.1831 31.0583 32.1628 30.6018 30.4444 29.8502L29.5049 29.4472C26.7928 28.2928 24.9938 26.8429 24.9938 23.7819C24.9938 20.9626 27.1418 18.8145 30.4982 18.8145C32.8879 18.8145 34.6063 19.6469 35.8413 21.8218L32.9146 23.7012C32.2701 22.5468 31.5722 22.0904 30.4983 22.0904C29.3974 22.0904 28.6992 22.7885 28.6992 23.7012C28.6992 24.829 29.3974 25.2856 31.0082 25.9837L31.9479 26.3865C35.1432 27.7559 36.9422 29.152 36.9422 32.2934C36.9422 35.6767 34.2841 37.5292 30.713 37.5292C27.2225 37.5292 24.9669 35.8646 23.8662 33.6896Z" fill="black"/>
</svg>
