<svg width="40" height="40" viewBox="0 0 40 40" fill="none" xmlns="http://www.w3.org/2000/svg">
<path d="M31.7146 39.9302H39.9965L40 25.2987C40 18.1159 38.4523 12.5946 30.0582 12.5946C28.4833 12.5361 26.922 12.9059 25.5405 13.6646C24.1591 14.4233 23.0094 15.5425 22.2137 16.9029H22.1024V13.258H14.1518V39.9293H22.4337V26.7351C22.4337 23.2559 23.0936 19.8861 27.4071 19.8861C31.6594 19.8861 31.7146 23.8675 31.7146 26.9603V39.9302Z" fill="white" fill-opacity="0.25"/>
<path d="M2.13669 8.80273C2.92714 9.33069 3.8564 9.6124 4.80694 9.61223C5.43811 9.61212 6.06306 9.48769 6.64612 9.24605C7.22919 9.00442 7.75893 8.65031 8.20513 8.20394C8.65135 7.75757 9.00529 7.22768 9.24671 6.64454C9.48814 6.06139 9.61234 5.4364 9.61222 4.80525C9.61205 3.85469 9.32998 2.92553 8.80173 2.13526C8.27351 1.345 7.52277 0.729125 6.64452 0.365518C5.76625 0.00191342 4.79987 -0.0930949 3.86762 0.0925177C2.93535 0.278128 2.07909 0.736024 1.40707 1.40829C0.735033 2.08056 0.27746 2.93701 0.0921819 3.86934C-0.0930964 4.80166 0.00225937 5.76799 0.366161 6.64613C0.730084 7.52427 1.34623 8.27477 2.13669 8.80273Z" fill="white" fill-opacity="0.25"/>
<path d="M0.657367 39.9302H8.94793V13.258H0.657367V39.9302Z" fill="white" fill-opacity="0.25"/>
</svg>
