<svg width="41" height="46" viewBox="0 0 41 46" fill="none" xmlns="http://www.w3.org/2000/svg">
<path d="M20.1961 45.8449C19.5922 45.8449 18.9925 45.6865 18.4631 45.3817L12.9468 42.1158C12.1229 41.6551 12.5249 41.4921 12.7967 41.3982C13.8952 41.0136 14.1181 40.9267 15.2907 40.2608C15.414 40.1905 15.5753 40.2153 15.7014 40.2897L19.9392 42.8045C20.0923 42.8872 20.3094 42.8872 20.4513 42.8045L36.9749 33.2667C37.1279 33.1798 37.2272 33.002 37.2272 32.82V13.7527C37.2272 13.5624 37.1279 13.3928 36.9716 13.2977L20.4546 3.76819C20.3016 3.67719 20.0989 3.67719 19.9459 3.76819L3.43216 13.2977C3.27209 13.3887 3.17035 13.5665 3.17035 13.7485V32.8159C3.17035 32.9978 3.26961 33.1716 3.42678 33.2584L7.95165 35.8724C10.4085 37.1008 11.9099 35.6532 11.9099 34.1973V15.3782C11.9099 15.1093 12.1208 14.9025 12.3897 14.9025H14.4825C14.7431 14.9025 14.9582 15.1093 14.9582 15.3782V34.2056C14.9582 37.4813 13.1714 39.3633 10.0652 39.3633C9.10975 39.3633 8.35698 39.3633 6.25586 38.3292L1.92125 35.8311C1.39425 35.5236 0.956964 35.0834 0.652916 34.5544C0.348868 34.0254 0.188657 33.426 0.188232 32.8159V13.7485C0.188232 12.5077 0.850006 11.3496 1.92125 10.7375L18.4614 1.19555C19.5078 0.604088 20.8976 0.604088 21.9357 1.19555L38.4552 10.7416C38.9821 11.0482 39.4195 11.4875 39.7236 12.0159C40.0277 12.5442 40.1879 13.1431 40.1882 13.7527V32.82C40.1882 34.0567 39.5223 35.2106 38.4552 35.8311L21.9357 45.373C21.4062 45.6779 20.8055 45.8377 20.1944 45.8362" fill="#689F63"/>
<path d="M25.2999 32.7289C18.0701 32.7289 16.5542 29.4101 16.5542 26.6266C16.5542 26.3619 16.7676 26.1509 17.0327 26.1509H19.167C19.4027 26.1509 19.6012 26.3226 19.6385 26.5554C19.9611 28.7302 20.9207 29.8271 25.2925 29.8271C28.7751 29.8271 30.2558 29.0404 30.2558 27.1936C30.2558 26.1306 29.8339 25.3407 24.4239 24.8112C19.899 24.3645 17.1031 23.3677 17.1031 19.7487C17.1031 16.415 19.9156 14.4297 24.6266 14.4297C29.9166 14.4297 32.5389 16.2661 32.8698 20.2119C32.8753 20.2783 32.8669 20.345 32.8453 20.408C32.8237 20.4709 32.7893 20.5287 32.7442 20.5777C32.6991 20.6267 32.6443 20.6658 32.5834 20.6925C32.5224 20.7193 32.4566 20.7331 32.39 20.7331H30.2434C30.02 20.7331 29.8256 20.5759 29.7801 20.3608C29.2631 18.0736 28.014 17.3415 24.6183 17.3415C20.8173 17.3415 20.3747 18.665 20.3747 19.6577C20.3747 20.8613 20.8958 21.2128 26.0246 21.8912C31.1037 22.5653 33.515 23.5166 33.515 27.0861C33.515 30.6845 30.5122 32.7484 25.2759 32.7484" fill="#689F63"/>
</svg>
