<svg width="40" height="41" viewBox="0 0 40 41" fill="none" xmlns="http://www.w3.org/2000/svg">
<path d="M33.6725 24.7242C32.7995 23.8151 31.7464 23.3291 30.6303 23.3291C29.5232 23.3291 28.4611 23.8061 27.5521 24.7152L24.7079 27.5504C24.4738 27.4244 24.2398 27.3074 24.0148 27.1904C23.6908 27.0284 23.3848 26.8754 23.1237 26.7134C20.4596 25.0212 18.0384 22.8161 15.7162 19.9629C14.5911 18.5408 13.8351 17.3437 13.286 16.1286C14.0241 15.4535 14.7081 14.7515 15.3742 14.0764C15.6262 13.8244 15.8782 13.5634 16.1302 13.3114C18.0204 11.4212 18.0204 8.97304 16.1302 7.0829L13.673 4.62572C13.394 4.3467 13.106 4.05868 12.836 3.77066C12.2959 3.21262 11.7289 2.63658 11.1439 2.09654C10.2708 1.23247 9.22672 0.773438 8.12864 0.773438C7.03056 0.773438 5.96848 1.23247 5.06841 2.09654C5.05941 2.10554 5.05941 2.10554 5.05041 2.11454L1.99018 5.20177C0.838096 6.35385 0.181047 7.75796 0.0370364 9.38708C-0.17898 12.0153 0.595078 14.4635 1.18912 16.0656C2.64723 19.9989 4.82539 23.6441 8.07463 27.5504C12.0169 32.2578 16.7603 35.975 22.1787 38.5942C24.2488 39.5753 27.012 40.7364 30.0993 40.9344C30.2883 40.9434 30.4863 40.9524 30.6663 40.9524C32.7455 40.9524 34.4916 40.2054 35.8597 38.7203C35.8687 38.7023 35.8867 38.6932 35.8957 38.6752C36.3637 38.1082 36.9038 37.5952 37.4708 37.0461C37.8578 36.6771 38.2539 36.2901 38.6409 35.885C39.532 34.958 40 33.8779 40 32.7708C40 31.6547 39.523 30.5836 38.6139 29.6836L33.6725 24.7242ZM36.8948 34.2019C36.8858 34.2109 36.8858 34.2019 36.8948 34.2019C36.5437 34.5799 36.1837 34.922 35.7967 35.3C35.2116 35.858 34.6176 36.4431 34.0596 37.1001C33.1505 38.0722 32.0794 38.5312 30.6753 38.5312C30.5403 38.5312 30.3963 38.5312 30.2613 38.5222C27.5881 38.3512 25.1039 37.3071 23.2408 36.4161C18.1464 33.9499 13.673 30.4486 9.95577 26.0113C6.88654 22.312 4.83439 18.8918 3.47529 15.2195C2.63823 12.9783 2.33221 11.2322 2.46722 9.58509C2.55722 8.53201 2.96225 7.65895 3.70931 6.91189L6.77854 3.84266C7.21957 3.42863 7.6876 3.20362 8.14664 3.20362C8.71368 3.20362 9.17271 3.54564 9.46074 3.83366C9.46974 3.84267 9.47874 3.85167 9.48774 3.86067C10.0368 4.3737 10.5588 4.90474 11.1079 5.47179C11.3869 5.75981 11.6749 6.04783 11.9629 6.34485L14.4201 8.80203C15.3742 9.7561 15.3742 10.6382 14.4201 11.5922C14.1591 11.8533 13.9071 12.1143 13.646 12.3663C12.89 13.1404 12.1699 13.8604 11.3869 14.5625C11.3689 14.5805 11.3509 14.5895 11.3419 14.6075C10.5678 15.3815 10.7118 16.1376 10.8738 16.6506C10.8828 16.6776 10.8918 16.7046 10.9008 16.7316C11.5399 18.2797 12.44 19.7378 13.8081 21.475L13.8171 21.484C16.3012 24.5442 18.9204 26.9294 21.8097 28.7565C22.1787 28.9905 22.5567 29.1795 22.9167 29.3596C23.2408 29.5216 23.5468 29.6746 23.8078 29.8366C23.8438 29.8546 23.8798 29.8816 23.9158 29.8996C24.2218 30.0526 24.5098 30.1246 24.8069 30.1246C25.5539 30.1246 26.022 29.6566 26.175 29.5036L29.2532 26.4253C29.5592 26.1193 30.0453 25.7503 30.6123 25.7503C31.1703 25.7503 31.6294 26.1013 31.9084 26.4073C31.9174 26.4163 31.9174 26.4163 31.9264 26.4253L36.8858 31.3847C37.8128 32.3028 37.8128 33.2478 36.8948 34.2019Z" fill="white" fill-opacity="0.25"/>
<path d="M36.8948 34.2019C36.5437 34.5799 36.1837 34.922 35.7967 35.3C35.2116 35.858 34.6176 36.4431 34.0596 37.1001C33.1505 38.0722 32.0794 38.5312 30.6753 38.5312C30.5403 38.5312 30.3963 38.5312 30.2613 38.5222C27.5881 38.3512 25.1039 37.3071 23.2408 36.4161C18.1464 33.9499 13.673 30.4486 9.95577 26.0113C6.88654 22.312 4.83439 18.8918 3.47529 15.2195C2.63823 12.9783 2.33221 11.2322 2.46722 9.58509C2.55722 8.53201 2.96225 7.65895 3.70931 6.91189L6.77854 3.84266C7.21957 3.42863 7.6876 3.20362 8.14664 3.20362C8.71368 3.20362 9.17271 3.54564 9.46074 3.83366L9.48774 3.86067C10.0368 4.3737 10.5588 4.90474 11.1079 5.47179C11.3869 5.75981 11.6749 6.04783 11.9629 6.34485L14.4201 8.80203C15.3742 9.7561 15.3742 10.6382 14.4201 11.5922C14.1591 11.8533 13.9071 12.1143 13.646 12.3663C12.89 13.1404 12.1699 13.8604 11.3869 14.5625C11.3689 14.5805 11.3509 14.5895 11.3419 14.6075C10.5678 15.3815 10.7118 16.1376 10.8738 16.6506L10.9008 16.7316C11.5399 18.2797 12.44 19.7378 13.8081 21.475L13.8171 21.484C16.3012 24.5442 18.9204 26.9294 21.8097 28.7565C22.1787 28.9905 22.5567 29.1795 22.9167 29.3596C23.2408 29.5216 23.5468 29.6746 23.8078 29.8366C23.8438 29.8546 23.8798 29.8816 23.9158 29.8996C24.2218 30.0526 24.5098 30.1246 24.8069 30.1246C25.5539 30.1246 26.022 29.6566 26.175 29.5036L29.2532 26.4253C29.5592 26.1193 30.0453 25.7503 30.6123 25.7503C31.1703 25.7503 31.6294 26.1013 31.9084 26.4073L31.9264 26.4253L36.8858 31.3847C37.8128 32.3028 37.8128 33.2478 36.8948 34.2019Z" fill="white" fill-opacity="0.25"/>
</svg>
