<svg width="41" height="42" viewBox="0 0 41 42" fill="none" xmlns="http://www.w3.org/2000/svg">
<path d="M19.8184 0.666338C18.1692 0.673894 16.5942 0.814591 15.2081 1.06C11.1251 1.78111 10.3838 3.29099 10.3838 6.07505V9.75222H20.0321V10.9778H6.76314C3.95893 10.9778 1.50376 12.6633 0.735867 15.8694C-0.150051 19.5445 -0.189273 21.8377 0.735867 25.675C1.42172 28.5314 3.05933 30.5666 5.86354 30.5666H9.18088V26.1586C9.18088 22.9741 11.9362 20.1648 15.2081 20.1648H24.8446C27.5275 20.1648 29.6689 17.9561 29.6689 15.262V6.07541C29.6689 3.46047 27.4631 1.49612 24.8449 1.06C23.1875 0.784005 21.4679 0.658781 19.8184 0.666338ZM14.6007 3.62384C15.5975 3.62384 16.4111 4.45074 16.4111 5.468C16.4111 6.4813 15.5975 7.30065 14.6011 7.30065C13.6008 7.30065 12.7904 6.4813 12.7904 5.468C12.7904 4.45074 13.6008 3.62384 14.6007 3.62384Z" fill="url(#paint0_linear_826_84)"/>
<path d="M30.8722 10.9785V15.2627C30.8722 18.5844 28.0561 21.38 24.8449 21.38H15.2081C12.5684 21.38 10.3838 23.6394 10.3838 26.2827V35.4701C10.3838 38.0847 12.6576 39.6226 15.2081 40.3729C18.2621 41.2707 21.1908 41.4329 24.8446 40.3729C27.2738 39.6694 29.6689 38.2541 29.6689 35.4701V31.7929H20.0321V30.5673H34.4929C37.2971 30.5673 38.342 28.6112 39.3172 25.6757C40.3244 22.6534 40.2816 19.747 39.3172 15.8701C38.6241 13.0789 37.3007 10.9785 34.4929 10.9785H30.8722ZM25.452 34.2441C26.4523 34.2441 27.2627 35.0638 27.2627 36.0771C27.2627 37.0944 26.4523 37.9213 25.452 37.9213C24.4552 37.9213 23.642 37.0944 23.642 36.0771C23.642 35.0638 24.4552 34.2441 25.452 34.2441Z" fill="url(#paint1_linear_826_84)"/>
<defs>
<linearGradient id="paint0_linear_826_84" x1="0.0565417" y1="0.666141" x2="22.3039" y2="19.6241" gradientUnits="userSpaceOnUse">
<stop stop-color="#5A9FD4"/>
<stop offset="1" stop-color="#306998"/>
</linearGradient>
<linearGradient id="paint1_linear_826_84" x1="25.2201" y1="35.7681" x2="17.2385" y2="24.5835" gradientUnits="userSpaceOnUse">
<stop stop-color="#FFD43B"/>
<stop offset="1" stop-color="#FFE873"/>
</linearGradient>
</defs>
</svg>
