<svg width="41" height="37" viewBox="0 0 41 37" fill="none" xmlns="http://www.w3.org/2000/svg">
<path d="M40.1882 18.3032C40.1882 15.6534 36.8698 13.1422 31.7822 11.5849C32.9563 6.39941 32.4345 2.27385 30.1352 0.953018C29.6053 0.643193 28.9856 0.496434 28.3089 0.496434V2.31462C28.684 2.31462 28.9856 2.388 29.2384 2.5266C30.3472 3.16256 30.8283 5.58408 30.4532 8.69864C30.3635 9.46504 30.2168 10.2722 30.0374 11.0957C28.4394 10.7043 26.6946 10.4027 24.8601 10.207C23.7594 8.69864 22.6179 7.32888 21.4683 6.13035C24.1263 3.65991 26.6212 2.30646 28.3171 2.30646V0.488281C26.0749 0.488281 23.1397 2.08633 20.1719 4.85844C17.2041 2.10263 14.269 0.520895 12.0268 0.520895V2.33908C13.7145 2.33908 16.2176 3.68437 18.8756 6.13851C17.7341 7.33704 16.5926 8.69864 15.5083 10.207C13.6656 10.4027 11.9208 10.7043 10.3228 11.1039C10.1352 10.2885 9.99663 9.49766 9.89879 8.7394C9.51559 5.62485 9.98848 3.20332 11.0892 2.55922C11.3338 2.41246 11.6517 2.34723 12.0268 2.34723V0.529048C11.3419 0.529048 10.7223 0.675807 10.1842 0.985631C7.89308 2.30646 7.37943 6.42387 8.56165 11.5931C3.49031 13.1585 0.188232 15.6615 0.188232 18.3032C0.188232 20.953 3.50662 23.4642 8.59427 25.0215C7.42019 30.207 7.942 34.3326 10.2412 35.6534C10.7712 35.9632 11.3908 36.11 12.0757 36.11C14.3179 36.11 17.2531 34.5119 20.2208 31.7398C23.1886 34.4956 26.1238 36.0774 28.366 36.0774C29.0508 36.0774 29.6705 35.9306 30.2086 35.6208C32.4997 34.2999 33.0133 30.1825 31.8311 25.0134C36.8862 23.4561 40.1882 20.9449 40.1882 18.3032ZM29.5727 12.865C29.271 13.9167 28.8959 15.0011 28.472 16.0855C28.1377 15.4332 27.7871 14.781 27.4039 14.1287C27.0288 13.4765 26.6293 12.8405 26.2298 12.2209C27.3876 12.3921 28.5046 12.6041 29.5727 12.865ZM25.8385 21.5482C25.2025 22.6489 24.5502 23.6925 23.8735 24.6628C22.6587 24.7688 21.4275 24.8258 20.1882 24.8258C18.9571 24.8258 17.7259 24.7688 16.5193 24.6709C15.8425 23.7007 15.1821 22.6652 14.5462 21.5727C13.9265 20.5046 13.3639 19.4202 12.8503 18.3277C13.3558 17.2351 13.9265 16.1426 14.538 15.0745C15.174 13.9738 15.8262 12.9302 16.5029 11.9599C17.7178 11.854 18.9489 11.7969 20.1882 11.7969C21.4194 11.7969 22.6505 11.854 23.8572 11.9518C24.5339 12.922 25.1943 13.9575 25.8303 15.05C26.45 16.1181 27.0125 17.2025 27.5262 18.295C27.0125 19.3876 26.45 20.4801 25.8385 21.5482ZM28.472 20.4883C28.9122 21.5808 29.2873 22.6734 29.5971 23.7333C28.529 23.9942 27.4039 24.2143 26.238 24.3856C26.6375 23.7577 27.037 23.1136 27.412 22.4532C27.7871 21.801 28.1377 21.1405 28.472 20.4883ZM20.2045 29.1878C19.4463 28.4051 18.688 27.5327 17.9379 26.5788C18.6717 26.6114 19.4218 26.6359 20.1801 26.6359C20.9465 26.6359 21.7047 26.6196 22.4467 26.5788C21.7129 27.5327 20.9546 28.4051 20.2045 29.1878ZM14.1385 24.3856C12.9807 24.2143 11.8637 24.0023 10.7957 23.7414C11.0973 22.6897 11.4724 21.6053 11.8963 20.5209C12.2306 21.1732 12.5812 21.8254 12.9644 22.4777C13.3476 23.1299 13.739 23.7659 14.1385 24.3856ZM20.1638 7.41857C20.922 8.20129 21.6803 9.07369 22.4304 10.0276C21.6966 9.99501 20.9465 9.97055 20.1882 9.97055C19.4218 9.97055 18.6636 9.98685 17.9216 10.0276C18.6554 9.07369 19.4137 8.20129 20.1638 7.41857ZM14.1303 12.2209C13.7308 12.8487 13.3313 13.4928 12.9563 14.1532C12.5812 14.8054 12.2306 15.4577 11.8963 16.11C11.4561 15.0174 11.081 13.9249 10.7712 12.865C11.8393 12.6122 12.9644 12.3921 14.1303 12.2209ZM6.75163 22.4288C3.86536 21.1976 1.99826 19.5833 1.99826 18.3032C1.99826 17.0231 3.86536 15.4006 6.75163 14.1776C7.45281 13.876 8.21922 13.6069 9.01008 13.3542C9.47482 14.9522 10.0863 16.6155 10.8446 18.3195C10.0945 20.0154 9.49113 21.6705 9.03454 23.2604C8.22737 23.0076 7.46096 22.7304 6.75163 22.4288ZM11.1381 34.0798C10.0292 33.4438 9.5482 31.0223 9.92325 27.9078C10.0129 27.1414 10.1597 26.3342 10.3391 25.5107C11.9371 25.9021 13.6819 26.2037 15.5164 26.3994C16.6171 27.9078 17.7586 29.2775 18.9082 30.4761C16.2502 32.9465 13.7553 34.2999 12.0594 34.2999C11.6925 34.2918 11.3827 34.2184 11.1381 34.0798ZM30.4777 27.867C30.8609 30.9816 30.388 33.4031 29.2873 34.0472C29.0427 34.1939 28.7247 34.2592 28.3497 34.2592C26.6619 34.2592 24.1589 32.9139 21.5009 30.4597C22.6424 29.2612 23.7838 27.8996 24.8682 26.3913C26.7109 26.1956 28.4557 25.8939 30.0537 25.4944C30.2412 26.3179 30.388 27.1087 30.4777 27.867ZM33.6167 22.4288C32.9155 22.7304 32.1491 22.9995 31.3582 23.2522C30.8935 21.6542 30.282 19.9909 29.5237 18.2869C30.2738 16.591 30.8772 14.9359 31.3338 13.346C32.1409 13.5988 32.9074 13.876 33.6248 14.1776C36.5111 15.4088 38.3782 17.0231 38.3782 18.3032C38.37 19.5833 36.503 21.2058 33.6167 22.4288Z" fill="#61DAFB"/>
<path d="M20.1802 22.0302C22.238 22.0302 23.9062 20.362 23.9062 18.3042C23.9062 16.2463 22.238 14.5781 20.1802 14.5781C18.1223 14.5781 16.4541 16.2463 16.4541 18.3042C16.4541 20.362 18.1223 22.0302 20.1802 22.0302Z" fill="#61DAFB"/>
</svg>
