<svg width="41" height="49" viewBox="0 0 41 49" fill="none" xmlns="http://www.w3.org/2000/svg">
<path d="M37.6125 6.62418C33.2251 0.231116 24.3249 -1.6492 17.9319 2.36214L6.77533 9.50733C5.26724 10.4707 3.9759 11.7371 2.98324 13.2261C1.99059 14.7151 1.31829 16.3942 1.00903 18.1568C0.459167 21.0992 0.899995 24.1409 2.26257 26.8062C1.30836 28.2902 0.668424 29.9541 0.382258 31.695C0.0780773 33.4807 0.131997 35.3091 0.540882 37.0737C0.949767 38.8384 1.70545 40.5041 2.76399 41.9741C7.15139 48.3672 16.0515 50.2475 22.4446 46.2361L33.6011 39.0909C35.1092 38.1275 36.4006 36.8612 37.3932 35.3722C38.3859 33.8832 39.0582 32.2041 39.3674 30.4415C39.9173 27.499 39.4765 24.4573 38.1139 21.792C39.0681 20.308 39.708 18.6442 39.9942 16.9032C40.2984 15.1175 40.2445 13.2892 39.8356 11.5245C39.4267 9.75987 38.671 8.09412 37.6125 6.62418Z" fill="#FF3E00"/>
<path d="M16.9292 42.6007C15.1548 43.0846 13.2741 43.007 11.5456 42.3785C9.81721 41.75 8.32593 40.6014 7.27688 39.0908C6.64118 38.1905 6.19174 37.1724 5.95495 36.0961C5.71816 35.0197 5.69879 33.907 5.89798 32.8231C5.9592 32.4836 6.04296 32.1486 6.14869 31.8202L6.3994 31.1935L7.02617 31.5695C8.35697 32.5239 9.84067 33.2446 11.4136 33.7005L11.7896 33.8259V34.3273C11.7248 34.8975 11.8575 35.4728 12.1657 35.9569C12.4655 36.4254 12.9059 36.787 13.4239 36.9897C13.9418 37.1924 14.5107 37.2258 15.0488 37.0851C15.3189 37.003 15.5732 36.8758 15.801 36.709L26.9575 29.5638C27.4765 29.2137 27.8367 28.6733 27.9603 28.0596C28.0891 27.4078 27.9538 26.7315 27.5843 26.1793C27.2845 25.7108 26.8441 25.3492 26.3261 25.1465C25.8081 24.9438 25.2393 24.9104 24.7011 25.0511C24.4749 25.1452 24.2638 25.2719 24.0743 25.4272L19.8123 28.0596C19.0768 28.5184 18.2728 28.857 17.4306 29.0624C15.6741 29.5184 13.8203 29.4265 12.1175 28.7992C10.4148 28.1719 8.94445 27.039 7.90365 25.5525C7.26795 24.6523 6.81851 23.6341 6.58172 22.5578C6.34493 21.4815 6.32556 20.3687 6.52475 19.2848C6.7241 18.2325 7.13879 17.2328 7.7428 16.3484C8.3468 15.4639 9.12708 14.7139 10.0347 14.1453L21.1912 7.00008C21.888 6.55312 22.6489 6.21496 23.4476 5.99724C25.2219 5.51329 27.1026 5.59092 28.8311 6.21944C30.5595 6.84797 32.0508 7.99652 33.0999 9.50716C33.7356 10.4074 34.185 11.4256 34.4218 12.5019C34.6586 13.5782 34.6779 14.691 34.4788 15.7749C34.4172 16.1143 34.3334 16.4493 34.228 16.7777L33.9773 17.4045L33.3506 17.0284C32.0198 16.074 30.5361 15.3534 28.9632 14.8974L28.5871 14.772V14.2706C28.652 13.7004 28.5192 13.1252 28.211 12.641C27.9113 12.1725 27.4708 11.811 26.9529 11.6083C26.4349 11.4056 25.866 11.3722 25.3279 11.5128C25.0578 11.5949 24.8035 11.7221 24.5758 11.8889L13.4192 19.0341C12.9002 19.3842 12.54 19.9246 12.4164 20.5383C12.2876 21.1902 12.4229 21.8665 12.7925 22.4187C13.0922 22.8872 13.5327 23.2487 14.0507 23.4514C14.5686 23.6541 15.1375 23.6875 15.6756 23.5468C15.9018 23.4528 16.113 23.3261 16.3024 23.1708L20.5644 20.5383C21.2999 20.0795 22.104 19.741 22.9462 19.5355C24.7026 19.0796 26.5564 19.1714 28.2592 19.7988C29.962 20.4261 31.4323 21.5589 32.4731 23.0454C33.1088 23.9457 33.5582 24.9638 33.795 26.0401C34.0318 27.1165 34.0512 28.2292 33.852 29.3131C33.6526 30.3654 33.2379 31.3651 32.6339 32.2496C32.0299 33.134 31.2497 33.8841 30.3421 34.4527L19.1855 41.5979C18.4887 42.0448 17.7279 42.383 16.9292 42.6007Z" fill="white"/>
</svg>
