<svg width="41" height="25" viewBox="0 0 41 25" fill="none" xmlns="http://www.w3.org/2000/svg">
<path d="M10.1882 8.29883C11.5216 2.96549 14.8549 0.298828 20.1882 0.298828C28.1882 0.298828 29.1882 6.29883 33.1882 7.29883C35.8549 7.96549 38.1882 6.96549 40.1882 4.29883C38.8549 9.63216 35.5216 12.2988 30.1882 12.2988C22.1882 12.2988 21.1882 6.29883 17.1882 5.29883C14.5216 4.63216 12.1882 5.63216 10.1882 8.29883ZM0.188232 20.2988C1.52157 14.9655 4.8549 12.2988 10.1882 12.2988C18.1882 12.2988 19.1882 18.2988 23.1882 19.2988C25.8549 19.9655 28.1882 18.9655 30.1882 16.2988C28.8549 21.6322 25.5216 24.2988 20.1882 24.2988C12.1882 24.2988 11.1882 18.2988 7.18823 17.2988C4.52157 16.6322 2.18823 17.6322 0.188232 20.2988Z" fill="#44A8B3"/>
</svg>
