<svg width="38" height="32" viewBox="0 0 38 32" fill="none" xmlns="http://www.w3.org/2000/svg">
<path d="M2.52598 14.2179L24.4118 5.2006C26.5722 4.26129 33.8988 1.25551 33.8988 1.25551C33.8988 1.25551 37.2803 -0.0595185 36.9985 3.13412C36.9046 4.44915 36.1532 9.05175 35.4017 14.0301L33.0534 28.7772C33.0534 28.7772 32.8656 30.9376 31.2688 31.3133C29.6719 31.689 27.0419 29.9983 26.5722 29.6226C26.1965 29.3408 19.5274 25.1139 17.0852 23.0474C16.4277 22.4838 15.6763 21.3567 17.1792 20.0416C20.5607 16.9419 24.5997 13.0908 27.0419 10.6486C28.169 9.52141 29.2962 6.89135 24.5997 10.085L11.3555 19.0084C11.3555 19.0084 9.85257 19.9477 7.03465 19.1023C4.21674 18.257 0.929161 17.1298 0.929161 17.1298C0.929161 17.1298 -1.32517 15.7208 2.52598 14.2179Z" fill="white" fill-opacity="0.25"/>
</svg>
