<svg width="45" height="37" viewBox="0 0 45 37" fill="none" xmlns="http://www.w3.org/2000/svg">
<path d="M14.152 36.5718C31.134 36.5718 40.4208 22.503 40.4208 10.303C40.4208 9.90349 40.4126 9.50574 40.3947 9.10966C42.2015 7.80223 43.761 6.18333 45 4.32885C43.3457 5.06424 41.5656 5.55924 39.6982 5.78242C41.6042 4.63932 43.0676 2.83134 43.758 0.675897C41.9456 1.75109 39.9629 2.509 37.8954 2.91696C36.2106 1.12242 33.8122 0 31.1562 0C26.0577 0 21.9232 4.13466 21.9232 9.23122C21.9232 9.95574 22.0043 10.6605 22.1627 11.3364C14.4894 10.9503 7.68523 7.27646 3.13154 1.6902C2.31138 3.09905 1.87997 4.70038 1.88137 6.33057C1.88137 9.53368 3.51131 12.3614 5.9899 14.0157C4.5238 13.9709 3.08985 13.5749 1.80858 12.8609C1.80722 12.8997 1.80722 12.9375 1.80722 12.9789C1.80722 17.4501 4.98965 21.1832 9.21415 22.0292C8.42072 22.2453 7.602 22.3546 6.77966 22.3541C6.19729 22.3537 5.61627 22.298 5.04446 22.1876C6.21988 25.8559 9.62821 28.5254 13.6691 28.6C10.5092 31.0768 6.52854 32.5519 2.20225 32.5519C1.45795 32.5519 0.722708 32.5096 0 32.4242C4.08604 35.0432 8.93782 36.5714 14.1525 36.5714" fill="white" fill-opacity="0.25"/>
</svg>
