<svg width="41" height="41" viewBox="0 0 41 41" fill="none" xmlns="http://www.w3.org/2000/svg">
<path d="M40.0559 6.20075L21.2658 39.8004C20.8778 40.494 19.8812 40.4981 19.4873 39.8078L0.324855 6.2039C-0.104081 5.45154 0.539038 4.54034 1.39148 4.69261L20.2018 8.05491C20.3218 8.07636 20.4446 8.07616 20.5645 8.05433L38.9814 4.69747C39.8309 4.54263 40.4774 5.44697 40.0559 6.20075Z" fill="url(#paint0_linear_826_85)"/>
<path d="M29.162 0.283309L15.2569 3.00792C15.1457 3.02966 15.045 3.08773 14.9705 3.17299C14.896 3.25824 14.8519 3.36585 14.8452 3.47889L13.9899 17.9252C13.9699 18.2655 14.2823 18.5296 14.6143 18.4529L18.4858 17.5596C18.8481 17.476 19.1753 17.7951 19.1009 18.1593L17.9507 23.7916C17.8732 24.1705 18.2291 24.4948 18.5993 24.3824L20.9905 23.6558C21.3612 23.5433 21.7174 23.8684 21.639 24.2477L19.8112 33.0948C19.6968 33.6482 20.4328 33.9499 20.7398 33.4754L20.9449 33.1586L32.2755 10.5462C32.4652 10.1676 32.1382 9.73593 31.7222 9.81615L27.7374 10.5852C27.3628 10.6574 27.0442 10.3087 27.1499 9.94225L29.7508 0.925999C29.8566 0.558829 29.5369 0.209818 29.162 0.283309Z" fill="url(#paint1_linear_826_85)"/>
<defs>
<linearGradient id="paint0_linear_826_85" x1="-0.143065" y1="3.49166" x2="23.2414" y2="35.2496" gradientUnits="userSpaceOnUse">
<stop stop-color="#41D1FF"/>
<stop offset="1" stop-color="#BD34FE"/>
</linearGradient>
<linearGradient id="paint1_linear_826_85" x1="19.1211" y1="1.02293" x2="23.3513" y2="30.0412" gradientUnits="userSpaceOnUse">
<stop stop-color="#FFEA83"/>
<stop offset="0.0833" stop-color="#FFDD35"/>
<stop offset="1" stop-color="#FFA800"/>
</linearGradient>
</defs>
</svg>
